<?xml version="1.0" encoding="utf-8"?>
<!-- Generator: Adobe Illustrator 25.0.0, SVG Export Plug-In . SVG Version: 6.00 Build 0)  -->
<svg version="1.1" id="Layer_1" xmlns="http://www.w3.org/2000/svg" xmlns:xlink="http://www.w3.org/1999/xlink" x="0px" y="0px"
	 viewBox="0 0 134.8 32" style="enable-background:new 0 0 134.8 32;" xml:space="preserve">
<style type="text/css">
	.st0{fill:#FCFCFC;}
	.st1{fill:#3E4892;}
	.st2{opacity:0.1;}
	.st3{fill:#FFFFFF;}
</style>
<g>
	<g>
		<path class="st0" d="M3.4,32h18.5c1.9,0,3.4-1.5,3.4-3.4V3.4c0-1.9-1.5-3.4-3.4-3.4H8.4L0,7.6v21.1C0,30.5,1.5,32,3.4,32z"/>
	</g>
	<g>
		<g>
			<path class="st1" d="M8.4,0v4.2c0,1.9-1.5,3.4-3.4,3.4H0L8.4,0z"/>
		</g>
	</g>
	<g>
		<g>
			<path class="st1" d="M19.4,7.6h-6.7c-0.9,0-1.7-0.8-1.7-1.7s0.8-1.7,1.7-1.7h6.7c0.9,0,1.7,0.8,1.7,1.7S20.3,7.6,19.4,7.6z"/>
		</g>
	</g>
	<g>
		<g>
			<path class="st1" d="M19.4,14.3H5.9c-0.9,0-1.7-0.8-1.7-1.7s0.8-1.7,1.7-1.7h13.5c0.9,0,1.7,0.8,1.7,1.7S20.3,14.3,19.4,14.3z"/>
		</g>
	</g>
	<g>
		<g>
			<path class="st1" d="M19.4,21.1H5.9c-0.9,0-1.7-0.8-1.7-1.7c0-0.9,0.8-1.7,1.7-1.7h13.5c0.9,0,1.7,0.8,1.7,1.7
				C21.1,20.3,20.3,21.1,19.4,21.1z"/>
		</g>
	</g>
	<g>
		<g>
			<path class="st1" d="M19.4,27.8H5.9c-0.9,0-1.7-0.8-1.7-1.7c0-0.9,0.8-1.7,1.7-1.7h13.5c0.9,0,1.7,0.8,1.7,1.7
				S20.3,27.8,19.4,27.8z"/>
		</g>
	</g>
</g>
<g>
	<g class="st2">
		<path class="st1" d="M33,25.4V7.6h3.7v14.5H44v3.3H33z"/>
		<path class="st1" d="M54.6,25.9c-1.1,0-2.1-0.2-3-0.5s-1.8-0.7-2.5-1.3c-0.8-0.6-1.4-1.2-2-2c-0.5-0.8-1-1.6-1.3-2.6s-0.5-2-0.5-3
			c0-1.1,0.2-2.1,0.5-3.1s0.7-1.8,1.3-2.6s1.2-1.4,2-2s1.6-1,2.5-1.3s1.9-0.5,3-0.5s2.1,0.2,3,0.5s1.8,0.7,2.5,1.3
			c0.8,0.6,1.4,1.2,2,2c0.5,0.8,1,1.6,1.3,2.6s0.5,2,0.5,3c0,1.1-0.2,2.1-0.5,3.1s-0.7,1.8-1.3,2.6c-0.6,0.8-1.2,1.4-2,2
			s-1.6,1-2.5,1.3C56.7,25.8,55.7,25.9,54.6,25.9z M54.6,22.5c0.8,0,1.5-0.1,2.1-0.4c0.7-0.3,1.2-0.7,1.7-1.2s0.8-1.2,1.1-1.9
			c0.3-0.7,0.4-1.5,0.4-2.4c0-0.9-0.1-1.7-0.4-2.4c-0.3-0.7-0.6-1.4-1.1-1.9s-1-0.9-1.7-1.2s-1.4-0.4-2.1-0.4
			c-0.8,0-1.5,0.1-2.1,0.4c-0.7,0.3-1.2,0.7-1.7,1.2s-0.9,1.2-1.1,1.9c-0.3,0.7-0.4,1.5-0.4,2.4c0,0.9,0.1,1.7,0.4,2.4
			c0.3,0.7,0.6,1.4,1.1,1.9s1,1,1.7,1.2C53.2,22.3,53.9,22.5,54.6,22.5z"/>
		<path class="st1" d="M75.4,25.9c-1.1,0-2-0.2-3-0.5c-0.9-0.3-1.8-0.7-2.5-1.3c-0.8-0.6-1.4-1.2-2-2c-0.5-0.8-1-1.6-1.3-2.6
			c-0.3-0.9-0.5-2-0.5-3.1s0.2-2.1,0.5-3.1c0.3-1,0.7-1.8,1.3-2.6s1.2-1.5,2-2c0.8-0.6,1.6-1,2.5-1.3s1.9-0.5,3-0.5
			c1.2,0,2.3,0.2,3.3,0.6s1.9,0.9,2.7,1.7c0.8,0.7,1.4,1.6,1.8,2.6L79.7,13c-0.5-0.8-1-1.4-1.7-1.9c-0.7-0.4-1.5-0.7-2.5-0.7
			c-0.8,0-1.5,0.1-2.1,0.4c-0.7,0.3-1.2,0.7-1.7,1.3c-0.5,0.5-0.9,1.2-1.1,1.9c-0.3,0.7-0.4,1.5-0.4,2.4c0,0.9,0.1,1.7,0.4,2.4
			c0.3,0.7,0.6,1.4,1.1,1.9s1.1,1,1.7,1.2c0.7,0.3,1.4,0.4,2.2,0.4c0.9,0,1.6-0.2,2.3-0.5c0.7-0.3,1.2-0.8,1.6-1.3
			c0.4-0.6,0.7-1.2,0.8-2h-4.4v-3.1h8.3v1.9c0,1.2-0.2,2.4-0.6,3.4s-1,1.9-1.8,2.7c-0.8,0.8-1.7,1.3-2.8,1.7
			C77.8,25.7,76.7,25.9,75.4,25.9z"/>
		<path class="st1" d="M95.5,25.9c-1.1,0-2-0.2-3-0.5c-0.9-0.3-1.8-0.7-2.5-1.3c-0.8-0.6-1.4-1.2-2-2c-0.5-0.8-1-1.6-1.3-2.6
			c-0.3-0.9-0.5-2-0.5-3.1s0.2-2.1,0.5-3.1s0.7-1.8,1.3-2.6c0.6-0.8,1.2-1.5,2-2c0.8-0.6,1.6-1,2.5-1.3s1.9-0.5,3-0.5
			c1.2,0,2.3,0.2,3.3,0.6s1.9,0.9,2.7,1.7c0.8,0.7,1.4,1.6,1.8,2.6L99.8,13c-0.5-0.8-1-1.4-1.7-1.9c-0.7-0.4-1.5-0.7-2.5-0.7
			c-0.8,0-1.5,0.1-2.1,0.4c-0.7,0.3-1.2,0.7-1.7,1.3c-0.5,0.5-0.9,1.2-1.1,1.9c-0.3,0.7-0.4,1.5-0.4,2.4c0,0.9,0.1,1.7,0.4,2.4
			c0.3,0.7,0.6,1.4,1.1,1.9s1.1,1,1.7,1.2c0.7,0.3,1.4,0.4,2.2,0.4c0.9,0,1.6-0.2,2.3-0.5c0.7-0.3,1.2-0.8,1.6-1.3
			c0.4-0.6,0.7-1.2,0.8-2H96v-3.1h8.3v1.9c0,1.2-0.2,2.4-0.6,3.4s-1,1.9-1.8,2.7c-0.8,0.8-1.7,1.3-2.8,1.7
			C97.9,25.7,96.8,25.9,95.5,25.9z"/>
		<path class="st1" d="M106.8,25.4V7.6H118v3.2h-7.6v3.9h6.8v3.2h-6.8v4.4h7.8v3.2h-11.4V25.4z"/>
		<path class="st1" d="M121.2,25.4V7.6h5.7c1.5,0,2.7,0.2,3.8,0.7s1.9,1.1,2.4,2c0.6,0.9,0.9,1.9,0.9,3.1c0,0.7-0.1,1.3-0.4,2
			c-0.3,0.6-0.6,1.2-1.1,1.7s-1,0.9-1.6,1.3l4,7.2h-4.1l-3.2-6.2c-0.3,0-0.7,0-1,0c-0.5,0-1.1-0.1-1.8-0.2v6.3L121.2,25.4
			L121.2,25.4z M124.9,10.7V16c0.3,0.1,0.6,0.1,1,0.1c0.3,0,0.7,0,1,0c1.1,0,1.9-0.2,2.5-0.7s0.9-1.1,0.9-2s-0.3-1.5-0.9-2
			s-1.4-0.7-2.5-0.7C126.9,10.7,124.9,10.7,124.9,10.7z"/>
	</g>
	<g>
		<path class="st3" d="M32.2,24.9V7.1h3.7v14.5h7.3v3.3H32.2z"/>
		<path class="st3" d="M53.8,25.4c-1.1,0-2.1-0.2-3-0.5s-1.8-0.7-2.5-1.3c-0.8-0.6-1.4-1.2-2-2c-0.5-0.8-1-1.6-1.3-2.6s-0.5-2-0.5-3
			c0-1.1,0.2-2.1,0.5-3.1s0.7-1.8,1.3-2.6s1.2-1.4,2-2s1.6-1,2.5-1.3s1.9-0.5,3-0.5s2.1,0.2,3,0.5s1.8,0.7,2.5,1.3
			c0.8,0.6,1.4,1.2,2,2c0.5,0.8,1,1.6,1.3,2.6s0.5,2,0.5,3c0,1.1-0.2,2.1-0.5,3.1s-0.7,1.8-1.3,2.6c-0.6,0.8-1.2,1.4-2,2
			s-1.6,1-2.5,1.3C55.9,25.3,54.9,25.4,53.8,25.4z M53.9,22c0.8,0,1.5-0.1,2.1-0.4c0.7-0.3,1.2-0.7,1.7-1.2s0.8-1.2,1.1-1.9
			c0.3-0.7,0.4-1.5,0.4-2.4c0-0.9-0.1-1.7-0.4-2.4c-0.3-0.7-0.6-1.4-1.1-1.9s-1-0.9-1.7-1.2s-1.4-0.4-2.1-0.4
			c-0.8,0-1.5,0.1-2.1,0.4c-0.7,0.3-1.2,0.7-1.7,1.2S49.2,13,49,13.7c-0.3,0.7-0.4,1.5-0.4,2.4c0,0.9,0.1,1.7,0.4,2.4
			c0.3,0.7,0.6,1.4,1.1,1.9s1,1,1.7,1.2C52.4,21.8,53.1,22,53.9,22z"/>
		<path class="st3" d="M74.6,25.4c-1.1,0-2-0.2-3-0.5s-1.8-0.7-2.5-1.3c-0.8-0.6-1.4-1.2-2-2c-0.5-0.8-1-1.6-1.3-2.6
			c-0.3-0.9-0.5-2-0.5-3.1s0.2-2.1,0.5-3.1c0.3-1,0.7-1.8,1.3-2.6s1.2-1.5,2-2c0.8-0.6,1.6-1,2.5-1.3s1.9-0.5,3-0.5
			c1.2,0,2.3,0.2,3.3,0.6s1.9,0.9,2.7,1.7c0.8,0.7,1.4,1.6,1.8,2.6l-3.6,1.1c-0.5-0.8-1-1.4-1.7-1.9c-0.7-0.3-1.5-0.5-2.4-0.5
			c-0.8,0-1.5,0.1-2.1,0.4c-0.7,0.3-1.2,0.7-1.7,1.3c-0.5,0.5-0.9,1.2-1.1,1.9c-0.3,0.7-0.4,1.5-0.4,2.4c0,0.9,0.1,1.7,0.4,2.4
			c0.3,0.7,0.6,1.4,1.1,1.9s1.1,1,1.7,1.2c0.7,0.3,1.4,0.4,2.2,0.4c0.9,0,1.6-0.2,2.3-0.5c0.7-0.3,1.2-0.8,1.6-1.3
			c0.4-0.6,0.7-1.2,0.8-2h-4.4V15h8.3v2c0,1.2-0.2,2.4-0.6,3.4s-1,1.9-1.8,2.7c-0.8,0.8-1.7,1.3-2.8,1.7
			C77.1,25.2,75.9,25.4,74.6,25.4z"/>
		<path class="st3" d="M94.7,25.4c-1.1,0-2-0.2-3-0.5s-1.8-0.7-2.5-1.3c-0.8-0.6-1.4-1.2-2-2c-0.5-0.8-1-1.6-1.3-2.6
			c-0.3-0.9-0.5-2-0.5-3.1s0.2-2.1,0.5-3.1s0.7-1.8,1.3-2.6c0.6-0.8,1.2-1.5,2-2c0.8-0.6,1.6-1,2.5-1.3s1.9-0.5,3-0.5
			C95.9,6.4,97,6.6,98,7s1.9,0.9,2.7,1.7c0.8,0.7,1.4,1.6,1.8,2.6l-3.6,1.1c-0.5-0.8-1-1.4-1.7-1.9c-0.7-0.3-1.5-0.5-2.4-0.5
			c-0.8,0-1.5,0.1-2.1,0.4c-0.7,0.3-1.2,0.7-1.7,1.3c-0.5,0.5-0.9,1.2-1.1,1.9c-0.3,0.7-0.4,1.5-0.4,2.4c0,0.9,0.1,1.7,0.4,2.4
			c0.3,0.7,0.6,1.4,1.1,1.9s1.1,1,1.7,1.2c0.7,0.3,1.4,0.4,2.2,0.4c0.9,0,1.6-0.2,2.3-0.5c0.7-0.3,1.2-0.8,1.6-1.3
			c0.4-0.6,0.7-1.2,0.8-2h-4.4V15h8.3v2c0,1.2-0.2,2.4-0.6,3.4s-1,1.9-1.8,2.7c-0.8,0.8-1.7,1.3-2.8,1.7
			C97.2,25.2,96,25.4,94.7,25.4z"/>
		<path class="st3" d="M106,24.9V7.1h11.2v3.2h-7.5v3.9h6.8v3.2h-6.8v4.4h7.8V25H106V24.9z"/>
		<path class="st3" d="M120.5,24.9V7.1h5.7c1.5,0,2.7,0.2,3.8,0.7s1.9,1.1,2.4,2c0.6,0.9,0.9,1.9,0.9,3.1c0,0.7-0.1,1.3-0.4,2
			c-0.3,0.6-0.6,1.2-1.1,1.7s-1,0.9-1.6,1.3l4,7.2h-4.1l-3.2-6.2c-0.3,0-0.7,0-1,0c-0.5,0-1.1-0.1-1.8-0.2V25L120.5,24.9L120.5,24.9
			z M124.2,10.2v5.3c0.3,0.1,0.6,0.1,1,0.1c0.3,0,0.7,0,1,0c1.1,0,1.9-0.2,2.5-0.7s0.9-1.1,0.9-2s-0.3-1.5-0.9-2s-1.4-0.7-2.5-0.7
			C126.2,10.2,124.2,10.2,124.2,10.2z"/>
	</g>
</g>
</svg>
